<?xml version="1.0" encoding="UTF-8" standalone="no"?>
<svg
   xmlns:dc="http://purl.org/dc/elements/1.1/"
   xmlns:cc="http://creativecommons.org/ns#"
   xmlns:rdf="http://www.w3.org/1999/02/22-rdf-syntax-ns#"
   xmlns:svg="http://www.w3.org/2000/svg"
   xmlns="http://www.w3.org/2000/svg"
   xmlns:sodipodi="http://sodipodi.sourceforge.net/DTD/sodipodi-0.dtd"
   xmlns:inkscape="http://www.inkscape.org/namespaces/inkscape"
   width="210mm"
   height="297mm"
   viewBox="0 0 210 297"
   version="1.1"
   id="svg1872"
   inkscape:version="1.0.2-2 (e86c870879, 2021-01-15)"
   sodipodi:docname="desenhando-1.svg"
   inkscape:export-filename="C:\Users\Giulia Beatriz\Documents\sistemas operacionais\INKSCAPE\minion.png"
   inkscape:export-xdpi="96"
   inkscape:export-ydpi="96">
  <defs
     id="defs1866" />
  <sodipodi:namedview
     id="base"
     pagecolor="#ffffff"
     bordercolor="#666666"
     borderopacity="1.0"
     inkscape:pageopacity="0.0"
     inkscape:pageshadow="2"
     inkscape:zoom="3.959798"
     inkscape:cx="373.91004"
     inkscape:cy="451.63162"
     inkscape:document-units="mm"
     inkscape:current-layer="layer1"
     inkscape:document-rotation="0"
     showgrid="false"
     inkscape:window-width="1822"
     inkscape:window-height="1051"
     inkscape:window-x="-9"
     inkscape:window-y="-9"
     inkscape:window-maximized="1" />
  <metadata
     id="metadata1869">
    <rdf:RDF>
      <cc:Work
         rdf:about="">
        <dc:format>image/svg+xml</dc:format>
        <dc:type
           rdf:resource="http://purl.org/dc/dcmitype/StillImage" />
        <dc:title />
      </cc:Work>
    </rdf:RDF>
  </metadata>
  <g
     inkscape:label="Layer 1"
     inkscape:groupmode="layer"
     id="layer1">
    <path
       id="rect2435"
       style="opacity:0.997;fill:#ffe700;fill-opacity:0.904059;stroke:#170c0c;stroke-width:1.51181;stroke-opacity:0.874539;paint-order:markers stroke fill"
       transform="scale(0.26458333)"
       d="m 388.15039,350.01758 c -17.42102,0 -31.99055,9.44206 -36.31055,22.3418 -0.07,0.53877 -0.17547,1.07619 -0.25586,1.61132 -0.22983,1.52996 -0.58512,3.03591 -0.98632,4.53125 -2.9e-4,0.004 -0.002,0.008 -0.002,0.0117 0.0384,0.17537 0.0844,0.34927 0.11914,0.52539 0.19181,0.98083 0.22846,1.98065 0.26172,2.97656 0.0261,0.90452 0.0362,1.80999 0.043,2.71485 0.0556,1.13329 -0.0565,2.256 -0.17773,3.38086 -0.0494,0.77253 -0.14511,1.52702 -0.31836,2.26758 v 3.66992 c 0.0623,0.42062 0.0616,0.80769 0,1.15234 v 74.53125 c 0.1547,0.29734 0.25195,0.68648 0.25195,1.17383 v 1.64648 0.49415 c 0.0506,0.004 0.10198,0.0153 0.15234,0.0176 -0.009,0.0803 -0.0224,0.15999 -0.0312,0.24024 0.21827,0.12626 -0.0318,0.48546 -0.0957,0.75195 -0.008,0.0665 -0.0174,0.13275 -0.0254,0.19922 v 0.33789 0.81836 1.23047 0.97461 1.07031 1.19531 0.98242 0.95313 0.87305 0.9414 0.81641 0.79101 0.94532 c 0.0237,0.4535 -0.0248,0.89829 -0.10547,1.34375 -0.0534,0.26094 -0.0898,0.52569 -0.11133,0.79101 -0.005,0.0785 -0.0236,0.15498 -0.0351,0.23242 v 9.96094 c 0,16.78726 16.78092,30.30078 37.62695,30.30078 20.84598,0 37.62891,-13.51352 37.62891,-30.30078 V 380.32031 c 0,-16.78726 -16.78293,-30.30273 -37.62891,-30.30273 z" />
    <ellipse
       style="opacity:0.997;fill:#000000;fill-opacity:0.904059;stroke:#170c0c;stroke-width:0.45511;stroke-opacity:0.874539;paint-order:markers stroke fill"
       id="path2437"
       cx="102.69831"
       cy="102.89875"
       rx="5.3846526"
       ry="5.1842003" />
    <ellipse
       style="opacity:0.997;fill:#ffffff;fill-opacity:0.904059;stroke:#170c0c;stroke-width:0.562201;stroke-opacity:0.874539;paint-order:markers stroke fill"
       id="path2439"
       cx="102.63152"
       cy="102.89877"
       rx="4.0615773"
       ry="4.1952124" />
    <ellipse
       style="opacity:0.997;fill:#080000;fill-opacity:0.904059;stroke:#170c0c;stroke-width:0.513049;stroke-opacity:0.874539;paint-order:markers stroke fill"
       id="path2441"
       cx="102.83195"
       cy="102.96559"
       rx="1.6139101"
       ry="1.7475449" />
    <rect
       style="opacity:0.997;fill:#080000;fill-opacity:0.904059;stroke:#170c0c;stroke-width:0.4;stroke-opacity:0.874539;paint-order:markers stroke fill"
       id="rect2457"
       width="2.4054255"
       height="0.13363476"
       x="154.08089"
       y="94.212502"
       rx="9.9557943"
       ry="0.13363476" />
    <rect
       style="opacity:0.997;fill:#080000;fill-opacity:0.904059;stroke:#170c0c;stroke-width:0.4;stroke-opacity:0.874539;paint-order:markers stroke fill"
       id="rect2459"
       width="5.3453903"
       height="2.6726952"
       x="107.2753"
       y="100.39311"
       rx="9.9557943"
       ry="0.13363469" />
    <rect
       style="opacity:0.997;fill:#080000;fill-opacity:0.904059;stroke:#170c0c;stroke-width:0.4;stroke-opacity:0.874539;paint-order:markers stroke fill"
       id="rect2459-8"
       width="5.3453903"
       height="2.6726952"
       x="92.742653"
       y="100.61505"
       rx="9.9557943"
       ry="0.13363469" />
    <path
       id="path2597"
       style="opacity:0.997;fill:#2c3897;fill-opacity:0.904059;stroke:#393b40;stroke-width:2.20733;stroke-opacity:0.874539;paint-order:markers stroke fill"
       transform="scale(0.26458333)"
       d="m 350.71289,470.30469 c 0.0366,0.18301 0.0625,0.37888 0.0625,0.60156 v 1.64648 0.49415 c 0.0506,0.004 0.10198,0.0153 0.15234,0.0176 -0.009,0.0803 -0.0224,0.15999 -0.0312,0.24024 0.21827,0.12626 -0.0318,0.48546 -0.0957,0.75195 -0.008,0.0665 -0.0174,0.13275 -0.0254,0.19922 v 0.33789 0.81836 1.23047 0.97461 1.07031 1.19531 0.98242 0.95313 0.87305 0.9414 0.81641 0.79101 0.94532 c 0.0237,0.4535 -0.0248,0.89829 -0.10547,1.34375 -0.0534,0.26094 -0.0898,0.52569 -0.11133,0.79101 -0.0208,0.35894 -0.12959,0.70439 -0.19336,1.05664 -0.0455,0.29488 -0.0693,0.58877 -0.12109,0.88282 -0.0633,0.2338 -0.13666,0.4647 -0.16992,0.70507 -0.0288,0.20765 -0.0369,0.41757 -0.043,0.62696 -0.007,0.29695 -0.0102,0.59355 -0.0117,0.89062 -0.001,0.29722 -0.002,0.59551 -0.002,0.89258 -2.3e-4,0.37474 3e-5,0.75045 0,1.125 -3e-5,0.38302 0,0.76542 0,1.14844 -10e-6,0.30043 0,0.59992 0,0.90039 -10e-6,0.29076 0,0.5824 0,0.87305 v 1.0332 c 0.002,0.28339 -0.006,0.58794 0.0117,0.85742 0.0697,0.28433 0.1214,0.57144 0.16211,0.86133 0.0456,0.33271 0.0577,0.66866 0.0664,1.0039 0.007,0.30505 0.008,0.61101 0.01,0.91602 0.001,0.2654 0.002,0.5296 0.002,0.79492 2e-4,0.25486 -3e-5,0.51089 0,0.76563 3e-5,0.25289 0,0.50496 0,0.75781 1e-5,0.25259 0,0.50534 0,0.75781 v 0.62891 c 0,0.44292 -0.0862,0.79638 -0.2168,1.08203 0.0472,0.0798 0.0996,0.15631 0.14649,0.23633 0.13242,0.2142 0.25571,0.43247 0.3789,0.65039 a 58.497493,48.626081 87.090422 0 0 37.50977,21.28515 58.497493,48.626081 87.090422 0 0 37.85352,-21.71875 c -0.0833,-0.34366 -0.0767,-0.7704 0.0762,-1.27734 0.0499,-0.16592 0.0993,-0.33395 0.16015,-0.49609 0.10587,-0.29209 0.096,-0.3299 0.10352,-0.39453 v -0.7754 -0.84374 -0.90235 -0.75781 -0.75781 -0.76172 -0.7793 -0.85937 -0.98438 -1.0625 -1.08984 -0.79297 c -0.66048,-0.30785 -0.90441,-1.2929 -0.01,-2.37305 0.004,-0.005 0.008,-0.009 0.0117,-0.0137 1e-5,-0.058 -10e-6,-0.11582 0,-0.17383 1.5e-4,-0.31389 -6e-4,-0.62778 0,-0.9414 0.004,-0.3419 0.004,-0.68335 0.008,-1.0254 0.004,-0.29404 0.0107,-0.58952 0.0371,-0.88281 0.0306,-0.32375 0.0745,-0.64459 0.15235,-0.96094 0.0518,-0.22847 0.0793,-0.40781 0.0566,-0.67578 v -1.06054 -1.01368 -1.08398 -0.95703 -0.90625 c -0.0381,-0.17805 -0.0904,-0.3532 -0.11133,-0.53516 -0.082,-0.43419 -0.20825,-0.8577 -0.32617,-1.2832 -0.0752,-0.51349 -0.0797,-1.02209 -0.0684,-1.54102 v -0.27929 c -0.10425,-0.0163 -0.19616,-0.0326 -0.34961,-0.0449 -0.0771,-0.006 -0.008,-0.15734 -0.01,-0.23633 -0.008,-0.36643 0.002,-0.85856 0.0137,-1.20703 0.0117,-0.35343 0.0318,-0.70717 0.0469,-1.06055 0.009,-0.18808 0.0172,-0.37628 0.0254,-0.56445 -0.4114,-0.59415 -0.35423,-1.18496 0.0156,-1.5293 7.6e-4,-0.0154 0.005,-0.0271 0.006,-0.043 0,-0.0182 -10e-6,-0.0365 0,-0.0547 7e-5,-0.26604 -3.8e-4,-0.53079 0,-0.79687 4.9e-4,-0.3106 0.002,-0.62097 0.004,-0.93164 0.004,-0.35978 0.008,-0.72065 0.0234,-1.08008 0.008,-0.18808 0.0344,-0.37469 0.0469,-0.5625 z" />
    <rect
       style="opacity:0.997;fill:#2c3897;fill-opacity:0.904059;stroke:#393b40;stroke-width:0.367491;stroke-opacity:0.874539;paint-order:markers stroke fill"
       id="rect2776"
       width="13.363476"
       height="19.118866"
       x="96.016579"
       y="118.25768"
       rx="9.9557943"
       ry="0.1127956" />
    <rect
       style="opacity:0.997;fill:#2c3897;fill-opacity:0.904059;stroke:#393b40;stroke-width:0.4;stroke-opacity:0.874539;paint-order:markers stroke fill"
       id="rect2780"
       width="6.8821902"
       height="1.7372519"
       x="140.92146"
       y="48.058651"
       rx="9.9557943"
       ry="0.11279558"
       transform="rotate(32.282305)" />
    <rect
       style="opacity:0.997;fill:#2c3897;fill-opacity:0.904059;stroke:#393b40;stroke-width:0.4;stroke-opacity:0.874539;paint-order:markers stroke fill"
       id="rect2780-5"
       width="6.8821902"
       height="1.7372519"
       x="-21.527866"
       y="-161.0383"
       rx="9.9557943"
       ry="0.11279558"
       transform="rotate(143.67692)" />
    <path
       id="rect2780-4"
       style="opacity:0.997;fill:#2c3897;fill-opacity:0.904059;stroke:#393b40;stroke-width:0.529059;stroke-opacity:0.874539;paint-order:markers stroke fill"
       d="m 96.198479,143.13877 1.87894,-0.0197 c 0.0626,-7.3e-4 0.10176,-1.42956 0.10387,-3.37931 -0.054,-0.0608 -0.10997,-0.11851 -0.16587,-0.17601 -0.10856,-0.0953 -0.19631,-0.22471 -0.2899,-0.34478 -0.082,-0.0956 -0.17077,-0.17843 -0.25167,-0.27639 -0.0726,-0.0956 -0.17194,-0.15818 -0.26045,-0.23786 -0.11939,-0.11457 -0.22715,-0.25461 -0.33124,-0.39569 -0.0568,-0.0898 -0.12535,-0.16292 -0.18965,-0.24149 -0.0605,-0.0709 -0.12767,-0.12893 -0.19017,-0.19711 -0.0893,-0.10021 -0.17997,-0.19905 -0.27337,-0.29166 -0.0745,-0.0618 -0.14465,-0.12922 -0.21239,-0.20221 7.9e-4,0.30852 -5.3e-4,0.59384 0.002,0.92083 0.022,2.68316 0.10218,4.84214 0.17984,4.84133 z" />
    <path
       id="rect2780-4-2"
       style="opacity:0.997;fill:#2c3897;fill-opacity:0.904059;stroke:#393b40;stroke-width:0.53439;stroke-opacity:0.874539;paint-order:markers stroke fill"
       d="m 109.41054,143.04918 -1.87894,-0.0201 c -0.0626,-7.5e-4 -0.10176,-1.45852 -0.10387,-3.44776 0.054,-0.062 0.10997,-0.12091 0.16587,-0.17957 0.10856,-0.0972 0.19631,-0.22927 0.2899,-0.35176 0.082,-0.0975 0.17077,-0.18205 0.25167,-0.282 0.0726,-0.0975 0.17194,-0.16138 0.26045,-0.24267 0.11939,-0.11689 0.22715,-0.25977 0.33124,-0.4037 0.0568,-0.0916 0.12535,-0.16622 0.18965,-0.24638 0.0605,-0.0724 0.12767,-0.13154 0.19017,-0.2011 0.0893,-0.10225 0.17997,-0.20309 0.27337,-0.29758 0.0745,-0.063 0.14465,-0.13183 0.21239,-0.2063 -7.9e-4,0.31476 5.3e-4,0.60586 -0.002,0.93948 -0.022,2.73751 -0.10218,4.94022 -0.17984,4.93938 z" />
    <circle
       style="opacity:0.997;fill:#2c3897;fill-opacity:0.904059;stroke:#393b40;stroke-width:0.4;stroke-opacity:0.874539;paint-order:markers stroke fill"
       id="path2902"
       sodipodi:type="arc"
       sodipodi:cx="102.39764"
       sodipodi:cy="122.91058"
       sodipodi:rx="2.8397388"
       sodipodi:ry="1.6370258"
       sodipodi:start="0"
       sodipodi:end="3.1397077"
       sodipodi:open="true"
       sodipodi:arc-type="arc"
       d="m 105.23738,122.91058 a 2.8397388,1.6370258 0 0 1 -2.83707,1.63703 2.8397388,1.6370258 0 0 1 -2.842407,-1.63394" />
    <path
       style="opacity:0.997;fill:#000000;fill-opacity:0.904059;stroke:#000000;stroke-width:0.4;stroke-opacity:0.874539;paint-order:markers stroke fill"
       d="m 97.286108,113.25546 c 5.041282,-4.2772 9.049832,0.028 9.087162,0.0668 -4.24095,-3.29438 -6.563489,-1.40906 -9.087162,-0.0668 z"
       id="path2904"
       sodipodi:nodetypes="ccc" />
    <path
       style="opacity:0.997;fill:#f0ff00;fill-opacity:1;stroke:#000000;stroke-width:0;stroke-opacity:0.797048;paint-order:markers stroke fill"
       d="m 111.7048,115.59544 c 10.10329,12.29303 0,0 0,0 z"
       id="path855" />
  </g>
</svg>
