<?xml version="1.0" encoding="UTF-8" standalone="no"?>
<svg
   xmlns:dc="http://purl.org/dc/elements/1.1/"
   xmlns:cc="http://creativecommons.org/ns#"
   xmlns:rdf="http://www.w3.org/1999/02/22-rdf-syntax-ns#"
   xmlns:svg="http://www.w3.org/2000/svg"
   xmlns="http://www.w3.org/2000/svg"
   xmlns:sodipodi="http://sodipodi.sourceforge.net/DTD/sodipodi-0.dtd"
   xmlns:inkscape="http://www.inkscape.org/namespaces/inkscape"
   width="210mm"
   height="297mm"
   viewBox="0 0 210 297"
   version="1.1"
   id="svg1032"
   inkscape:version="1.0.2-2 (e86c870879, 2021-01-15)"
   sodipodi:docname="desenhando.svg"
   inkscape:export-filename="C:\Users\Giulia Beatriz\Documents\sistemas operacionais\INKSCAPE\sam.png"
   inkscape:export-xdpi="96"
   inkscape:export-ydpi="96">
  <defs
     id="defs1026" />
  <sodipodi:namedview
     id="base"
     pagecolor="#ffffff"
     bordercolor="#666666"
     borderopacity="1.0"
     inkscape:pageopacity="0.0"
     inkscape:pageshadow="2"
     inkscape:zoom="2"
     inkscape:cx="325.84061"
     inkscape:cy="589.67522"
     inkscape:document-units="mm"
     inkscape:current-layer="layer1"
     inkscape:document-rotation="0"
     showgrid="false"
     inkscape:window-width="1822"
     inkscape:window-height="1051"
     inkscape:window-x="-9"
     inkscape:window-y="-9"
     inkscape:window-maximized="1" />
  <metadata
     id="metadata1029">
    <rdf:RDF>
      <cc:Work
         rdf:about="">
        <dc:format>image/svg+xml</dc:format>
        <dc:type
           rdf:resource="http://purl.org/dc/dcmitype/StillImage" />
        <dc:title />
      </cc:Work>
    </rdf:RDF>
  </metadata>
  <g
     inkscape:label="Layer 1"
     inkscape:groupmode="layer"
     id="layer1">
    <ellipse
       style="opacity:0.997;fill:#00fff4;fill-opacity:0.560886;stroke:#000000;stroke-width:0.7;stroke-opacity:0.874539;paint-order:markers stroke fill"
       id="path1595"
       cx="103.50012"
       cy="143.05602"
       rx="24.789249"
       ry="23.051996" />
    <path
       id="path1601"
       style="opacity:0.997;fill:#6e8281;fill-opacity:0.560886;stroke:#000000;stroke-width:0.65304;stroke-opacity:0.874539;paint-order:markers stroke fill"
       d="m 116.69404,118.08998 c 4.67866,5.55623 10.86465,7.21965 5.6887,9.51727 0.0861,0.0807 0.17319,0.16031 0.25484,0.24551 0.233,0.24707 0.41142,0.53405 0.56255,0.83284 0.0895,0.17422 0.14434,0.36385 0.20495,0.54685 0.054,0.14425 0.12392,0.27993 0.19331,0.41748 0.053,0.10276 0.10606,0.2051 0.15731,0.3084 5.19455,-1.32496 8.51106,-3.37232 -0.52336,-8.56264 -1.71215,-0.98364 -3.86812,-2.08002 -6.5383,-3.30571 z" />
    <path
       id="path1601-6"
       style="opacity:0.997;fill:#6e8281;fill-opacity:0.560886;stroke:#000000;stroke-width:0.65304;stroke-opacity:0.874539;paint-order:markers stroke fill"
       d="m 92.963965,118.5742 c -5.540025,4.69783 -11.91683,5.30595 -7.196721,8.43486 -0.09836,0.0652 -0.197507,0.12917 -0.292227,0.19956 -0.270953,0.20473 -0.494748,0.45793 -0.693607,0.72732 -0.11731,0.15684 -0.203017,0.33467 -0.293307,0.50499 -0.07731,0.13322 -0.168884,0.25533 -0.260248,0.37938 -0.0694,0.0925 -0.13879,0.18453 -0.206555,0.27783 -4.900719,-2.17298 -7.829196,-4.74494 1.944509,-8.35533 1.852254,-0.68422 4.160917,-1.40556 6.998156,-2.16861 z" />
    <path
       style="opacity:0.997;fill:#14d2c9;fill-opacity:0.560886;stroke:#170c0c;stroke-width:0.4;stroke-miterlimit:4;stroke-dasharray:none;stroke-opacity:0.874539;paint-order:markers stroke fill"
       d="m 88.392512,134.38687 c 5.61128,-7.58243 10.8734,-4.6449 11.05772,-4.90484 l -1.36873,-3.63549 c -3.10306,-0.10658 -7.18617,2.71672 -10.85297,5.12249 z"
       id="path1673"
       sodipodi:nodetypes="ccccc" />
    <path
       style="opacity:0.997;fill:#14d2c9;fill-opacity:0.560886;stroke:#170c0c;stroke-width:0.4;stroke-miterlimit:4;stroke-dasharray:none;stroke-opacity:0.874539;paint-order:markers stroke fill"
       d="m 107.9516,129.36967 c 9.42799,-0.3046 10.38956,5.64472 10.70778,5.62797 l 2.00165,-3.3292 c -1.8419,-2.49956 -6.58952,-3.94966 -10.75141,-5.33236 z"
       id="path1673-1"
       sodipodi:nodetypes="ccccc" />
    <ellipse
       style="opacity:0.997;fill:#000000;fill-opacity:0.889299;stroke:#170c0c;stroke-width:0.4;stroke-miterlimit:4;stroke-dasharray:none;stroke-opacity:0.874539;paint-order:markers stroke fill"
       id="path1695"
       cx="95.48204"
       cy="136.10699"
       rx="2.4722431"
       ry="2.0713389" />
    <ellipse
       style="opacity:0.997;fill:#000000;fill-opacity:0.889299;stroke:#170c0c;stroke-width:0.4;stroke-miterlimit:4;stroke-dasharray:none;stroke-opacity:0.874539;paint-order:markers stroke fill"
       id="path1695-4"
       cx="111.57964"
       cy="136.67407"
       rx="2.4722431"
       ry="2.0713389" />
    <path
       id="path1723"
       style="opacity:0.997;fill:#49f4ff;fill-opacity:1;stroke:#170c0c;stroke-width:0.563482;stroke-miterlimit:4;stroke-dasharray:none;stroke-opacity:0.874539;paint-order:markers stroke fill"
       d="m 85.270093,159.27356 a 3.4414295,4.8579306 22.587336 0 0 0.467482,6.07568 3.4414295,4.8579306 22.587336 0 0 4.810637,-1.43065 c -0.14148,-0.1422 -0.276986,-0.29962 -0.361524,-0.40128 -0.297268,-0.35793 -0.575401,-0.73696 -0.855915,-1.1119 l -0.445595,-0.34367 -0.687794,-0.53046 -0.473399,-0.36509 -0.462391,-0.35661 -0.531928,-0.41025 -0.708075,-0.54609 z" />
    <path
       id="path1723-3"
       style="opacity:0.997;fill:#49f4ff;fill-opacity:1;stroke:#170c0c;stroke-width:0.528835;stroke-miterlimit:4;stroke-dasharray:none;stroke-opacity:0.874539;paint-order:markers stroke fill"
       d="m 118.45026,161.50334 a 4.2776461,3.4424399 64.847306 0 1 -0.97278,5.32472 4.2776461,3.4424399 64.847306 0 1 -4.6879,-1.4097 c 0.15315,-0.12054 0.30172,-0.25451 0.39463,-0.34121 0.32683,-0.30513 0.63633,-0.62942 0.94781,-0.95005 l 0.47386,-0.28792 0.73142,-0.4444 0.50344,-0.30586 0.49171,-0.29875 0.56567,-0.34369 0.75298,-0.4575 z" />
    <path
       style="opacity:0.997;fill:#49f4ff;fill-opacity:1;stroke:#170c0c;stroke-width:0.4;stroke-miterlimit:4;stroke-dasharray:none;stroke-opacity:0.874539;paint-order:markers stroke fill"
       d="m 101.86458,142.47812 c -4.216198,5.29166 -1.19062,4.63021 -1.19062,4.63021 l 5.15937,-0.13229 c 0.0536,2.87621 -1.37003,-4.97859 -3.96875,-4.49792 z"
       id="path1864"
       sodipodi:nodetypes="cccc" />
  </g>
</svg>
